<svg width="336" height="409" viewBox="0 0 336 409" fill="none" xmlns="http://www.w3.org/2000/svg">
<path fill-rule="evenodd" clip-rule="evenodd" d="M31.6424 0C14.1668 0 0 14.1667 0 31.6423V305.976C0 323.451 14.1668 337.618 31.6424 337.618C49.118 337.618 63.2848 323.451 63.2848 305.976V31.6424C63.2848 14.1668 49.118 0 31.6424 0ZM304.358 71.3821C286.882 71.3821 272.715 85.5488 272.715 103.024V377.358C272.715 394.833 286.882 409 304.358 409C321.833 409 336 394.833 336 377.358V103.024C336 85.5488 321.833 71.3821 304.358 71.3821ZM70.6332 29.1662C70.6332 21.0493 77.2132 14.4693 85.3301 14.4693C93.4469 14.4693 100.027 21.0494 100.027 29.1662V337.39C100.027 345.507 93.4469 352.087 85.3301 352.087C77.2132 352.087 70.6332 345.507 70.6332 337.39V29.1662ZM250.67 57.8774C242.553 57.8774 235.973 64.4574 235.973 72.5742V380.798C235.973 388.915 242.553 395.495 250.67 395.495C258.787 395.495 265.367 388.915 265.367 380.798V72.5742C265.367 64.4574 258.787 57.8774 250.67 57.8774ZM105.906 37.7568C105.906 32.8867 109.854 28.9387 114.724 28.9387C119.594 28.9387 123.542 32.8867 123.542 37.7568V357.738C123.542 362.609 119.594 366.557 114.724 366.557C109.854 366.557 105.906 362.609 105.906 357.738V37.7568ZM221.276 43.408C216.406 43.408 212.458 47.356 212.458 52.2261V372.208C212.458 377.078 216.406 381.026 221.276 381.026C226.146 381.026 230.094 377.078 230.094 372.208V52.2261C230.094 47.356 226.146 43.408 221.276 43.408ZM130.156 47.5873C130.156 44.7464 132.459 42.4434 135.299 42.4434C138.14 42.4434 140.443 44.7464 140.443 47.5873V374.917C140.443 377.758 138.14 380.061 135.299 380.061C132.459 380.061 130.156 377.758 130.156 374.917V47.5873ZM200.701 28.9387C197.86 28.9387 195.557 31.2417 195.557 34.0826V361.413C195.557 364.254 197.86 366.557 200.701 366.557C203.541 366.557 205.844 364.254 205.844 361.413V34.0826C205.844 31.2417 203.541 28.9387 200.701 28.9387ZM147.057 61.919C147.057 59.6869 148.866 57.8774 151.099 57.8774C153.331 57.8774 155.14 59.6869 155.14 61.919V391.454C155.14 393.686 153.331 395.495 151.099 395.495C148.866 395.495 147.057 393.686 147.057 391.454V61.919ZM184.901 14.4693C182.669 14.4693 180.86 16.2789 180.86 18.511V348.046C180.86 350.278 182.669 352.087 184.901 352.087C187.134 352.087 188.943 350.278 188.943 348.046V18.511C188.943 16.2788 187.134 14.4693 184.901 14.4693ZM161.754 73.2192C161.754 72.2046 162.576 71.3821 163.591 71.3821C164.606 71.3821 165.428 72.2046 165.428 73.2192V407.163C165.428 408.177 164.606 409 163.591 409C162.576 409 161.754 408.177 161.754 407.163V73.2192ZM172.409 0C171.394 0 170.572 0.822496 170.572 1.8371V335.781C170.572 336.795 171.394 337.618 172.409 337.618C173.424 337.618 174.246 336.795 174.246 335.781V1.83711C174.246 0.822502 173.424 0 172.409 0Z" fill="black"/>
</svg>
