<svg width="321" height="391" viewBox="0 0 321 391" fill="none" xmlns="http://www.w3.org/2000/svg">
<path d="M203.831 77.9764C201.652 79.5451 199.285 80.8346 196.786 81.815C194.142 82.8849 191.349 83.5383 188.505 83.7517C184.318 84.1786 180.088 83.681 176.114 82.294C165.763 78.3837 158.29 69.2406 156.518 58.3183C156.657 58.1378 156.81 57.9435 156.97 57.7352C163.967 49.35 167.764 46.0875 174.039 41.9365C187.963 48.6142 198.715 63.4133 203.817 77.9348L203.831 77.9764Z" fill="white"/>
<path fill-rule="evenodd" clip-rule="evenodd" d="M175.994 82.6196C179.106 83.7185 182.385 84.2678 185.685 84.2431C186.632 84.2511 187.578 84.2027 188.52 84.0983C191.404 83.8875 194.237 83.2254 196.916 82.1362C199.444 81.1468 201.836 79.843 204.037 78.2554L204.229 78.0615L204.145 77.8199C198.455 61.6258 186.977 47.7562 174.189 41.6238L174.012 41.5387L173.848 41.6472C167.82 45.6341 163.915 48.8709 156.695 57.524L156.153 58.2242L156.175 58.3706C157.968 69.4168 165.526 78.6637 175.994 82.6196ZM176.235 81.9688C166.052 78.1208 158.682 69.1495 156.884 58.413L157.236 57.9575C164.326 49.4617 168.19 46.234 174.066 42.3352C186.57 48.4086 197.792 61.9854 203.419 77.8483C201.319 79.3308 199.048 80.5547 196.655 81.4936C194.037 82.5478 191.272 83.1933 188.458 83.4076C184.327 83.8206 180.157 83.3296 176.235 81.9688Z" fill="black"/>
<path d="M318.497 142.539C317.49 156.012 313.416 167.826 309.098 178.53C309.584 176.989 308.73 172.435 296.791 168.229C293.195 166.959 286.025 164.925 281.79 165.772C281.721 164.647 281.631 163.502 281.527 162.343V162.336C286.323 152.208 292.765 134.681 287.753 125.768C283.248 117.779 275.099 116.904 269.282 116.89C265.608 108.99 260.94 101.591 255.392 94.8719C252.372 91.2329 247.59 86.7019 247.507 86.6255C257.863 86.0771 269.046 86.5075 278.111 88.0693C290.856 90.2628 302.228 96.7374 308.982 104.314C320.663 117.419 319.246 132.55 318.497 142.539Z" fill="white"/>
<path fill-rule="evenodd" clip-rule="evenodd" d="M308.818 178.735C308.884 178.824 308.988 178.877 309.098 178.877C309.24 178.877 309.367 178.791 309.42 178.66C313.503 168.539 317.815 156.336 318.843 142.564L318.89 141.928L318.89 141.928C319.641 132.01 320.775 117.022 309.241 104.083C301.983 95.9408 290.368 89.8264 278.17 87.7274C269.5 86.2337 258.316 85.706 247.489 86.2788C247.349 86.2865 247.228 86.377 247.181 86.5084C247.134 86.6398 247.17 86.7867 247.272 86.8814C247.316 86.922 252.108 91.4591 255.125 95.0935C260.619 101.744 265.246 109.066 268.896 116.882L268.969 117.039C269.026 117.16 269.148 117.237 269.281 117.237C275.465 117.252 283.118 118.254 287.451 125.939C292.956 135.729 284.068 156.159 281.213 162.187C281.186 162.246 281.175 162.31 281.181 162.374C281.293 163.615 281.379 164.734 281.444 165.793C281.45 165.893 281.499 165.985 281.579 166.047C281.658 166.108 281.76 166.131 281.858 166.112C286.661 165.152 295.043 167.98 296.676 168.556C310.202 173.322 308.832 178.22 308.768 178.426C308.734 178.531 308.753 178.646 308.818 178.735ZM296.907 167.902C295.486 167.4 289.039 165.224 284.086 165.224C283.426 165.219 282.766 165.266 282.112 165.362C282.051 164.431 281.975 163.453 281.88 162.401C292.958 138.973 289.891 128.861 288.056 125.598C283.553 117.612 275.367 116.582 269.505 116.544C265.832 108.691 261.18 101.335 255.659 94.6502C253.257 91.7563 249.715 88.2717 248.328 86.9316C258.856 86.4276 269.644 86.9624 278.052 88.4114C290.1 90.4846 301.566 96.516 308.723 104.545C320.06 117.264 318.94 132.075 318.198 141.876L318.15 142.513V142.513C317.181 155.491 313.268 167.085 309.4 176.841C308.865 174.768 306.421 171.254 296.907 167.902Z" fill="black"/>
<path d="M303.833 171.002C300.367 169.065 296.661 167.595 292.811 166.629C289.273 165.67 285.367 164.784 281.698 165.43C281.548 165.472 281.443 165.609 281.443 165.765C281.603 168.344 281.666 170.92 281.689 173.503C281.703 175.029 283.643 175.474 284.885 176.036C288.406 177.553 292.064 178.729 295.81 179.547C299.078 180.324 302.682 181.154 306.062 180.664C307.276 180.488 308.741 180.075 309.328 178.879C309.33 178.848 309.343 178.819 309.363 178.796C310.735 175.535 306.026 172.289 303.833 171.002Z" fill="black"/>
<path d="M302.573 207.934C301.497 209.329 300.164 209.017 299.609 208.059C299.047 207.101 299.137 205.47 299.269 204.373C299.922 198.952 299.79 196.612 297.298 191.76C299.546 198.59 297.985 205.345 295.507 211.28C295.211 212.143 294.711 212.921 294.049 213.55C293.351 214.169 292.335 214.27 291.529 213.799C290.509 213.057 290.724 211.509 290.988 210.273C292.089 204.73 292.218 199.038 291.368 193.451C291.43 198.844 290.051 205.13 287.267 209.753C286.453 211.247 285.321 212.543 283.949 213.55C282.95 214.209 281.478 214.549 280.666 213.675C279.895 212.855 280.229 211.537 280.617 210.475C282.401 205.588 284.566 199.604 284.608 194.405C283.87 198.143 282.616 201.759 280.881 205.15C280.375 206.28 279.512 207.212 278.424 207.802C277.299 208.281 275.717 207.816 275.432 206.636C275.822 206.261 276.154 205.831 276.418 205.359C276.467 205.259 276.511 205.157 276.55 205.053C279.389 198.632 281.95 187.936 282.033 174.129L282.04 174.122C283.895 171.51 285.446 168.694 286.663 165.73C290.115 166.216 293.509 167.054 296.791 168.229C299.158 169.031 301.445 170.053 303.621 171.283C303.073 174.286 302.794 177.331 302.788 180.383C302.779 183.018 303.007 185.648 303.469 188.241C303.878 190.497 304.558 192.704 304.878 194.981C305.489 199.396 304.538 205.046 302.573 207.934Z" fill="white"/>
<path fill-rule="evenodd" clip-rule="evenodd" d="M280.411 213.91C280.819 214.336 281.389 214.567 281.977 214.546C282.751 214.519 283.501 214.274 284.141 213.838C285.554 212.802 286.723 211.468 287.565 209.932C289.675 206.201 291.003 202.08 291.469 197.819C291.755 201.964 291.479 206.13 290.648 210.201C290.339 211.65 290.177 213.245 291.327 214.082C292.261 214.642 293.45 214.535 294.269 213.818C294.977 213.155 295.511 212.329 295.827 211.413C298.307 205.472 299.19 200.174 298.492 195.334C299.437 198.097 299.399 200.383 298.925 204.332C298.709 206.119 298.839 207.432 299.309 208.233C299.622 208.798 300.197 209.169 300.841 209.223C301.649 209.227 302.404 208.822 302.848 208.146C302.852 208.141 302.856 208.135 302.86 208.129C304.844 205.213 305.859 199.541 305.222 194.933C305.038 193.624 304.733 192.325 304.438 191.068L304.432 191.043C304.212 190.106 303.984 189.137 303.81 188.178C303.351 185.606 303.125 182.997 303.135 180.383C303.14 177.352 303.417 174.327 303.963 171.345C303.989 171.202 303.922 171.057 303.796 170.983C301.601 169.744 299.294 168.712 296.907 167.902C293.598 166.725 290.181 165.882 286.705 165.385C286.549 165.366 286.4 165.454 286.341 165.6C285.136 168.525 283.607 171.306 281.782 173.89C281.721 173.954 281.687 174.039 281.687 174.127C281.585 191.01 277.838 201.281 276.224 204.932C276.188 205.031 276.15 205.118 276.115 205.189C275.868 205.632 275.557 206.035 275.191 206.386C275.103 206.472 275.066 206.598 275.095 206.717C275.247 207.3 275.651 207.785 276.196 208.04C276.936 208.404 277.796 208.433 278.559 208.122C279.722 207.506 280.645 206.52 281.184 205.32C282.232 203.353 283.084 201.29 283.73 199.158C282.869 202.972 281.72 206.715 280.291 210.355C279.904 211.414 279.494 212.935 280.411 213.91ZM284.643 194.06C284.631 194.059 284.619 194.058 284.608 194.058C284.442 194.058 284.3 194.175 284.267 194.337C283.532 198.038 282.291 201.619 280.578 204.981C280.108 206.042 279.303 206.921 278.288 207.483C277.712 207.713 277.066 207.69 276.508 207.42C276.206 207.28 275.965 207.035 275.828 206.732C276.18 206.366 276.483 205.956 276.729 205.512C276.781 205.408 276.827 205.302 276.867 205.193C280.288 197.457 282.295 186.182 282.38 174.245C284.169 171.702 285.679 168.973 286.885 166.107C290.219 166.608 293.498 167.428 296.676 168.556C298.944 169.329 301.14 170.301 303.236 171.462C302.712 174.407 302.446 177.392 302.441 180.383C302.431 183.038 302.661 185.689 303.127 188.303C303.304 189.278 303.534 190.256 303.756 191.202L303.758 191.208C304.051 192.456 304.354 193.746 304.534 195.029C305.14 199.407 304.155 204.983 302.292 207.73C301.982 208.21 301.458 208.509 300.887 208.531C300.473 208.491 300.106 208.249 299.909 207.883C299.639 207.424 299.369 206.449 299.614 204.415C300.286 198.824 300.104 196.464 297.606 191.601C297.524 191.44 297.331 191.369 297.164 191.439C296.997 191.509 296.912 191.696 296.969 191.868C298.827 197.516 298.244 203.822 295.187 211.144C294.911 211.954 294.446 212.685 293.831 213.279C293.253 213.794 292.413 213.89 291.733 213.519C290.907 212.917 291.064 211.577 291.327 210.348C292.435 204.764 292.566 199.03 291.712 193.401C291.685 193.22 291.523 193.091 291.341 193.105C291.159 193.119 291.019 193.272 291.021 193.455C291.087 199.138 289.534 205.315 286.971 209.574C286.18 211.021 285.083 212.279 283.758 213.26C282.831 213.87 281.56 214.127 280.919 213.436C280.262 212.739 280.619 211.48 280.944 210.594L280.947 210.584C282.715 205.74 284.913 199.716 284.955 194.408C284.956 194.229 284.821 194.078 284.643 194.06Z" fill="black"/>
<path d="M197.862 91.3665C195.578 92.602 193.502 91.2138 191.774 89.0064C190.561 87.3345 189.469 85.5785 188.505 83.7517C191.34 83.4871 194.127 82.8355 196.786 81.8151L199.125 87.7153C199.465 88.7009 199.118 90.6931 197.862 91.3665Z" fill="black"/>
<path d="M276.55 205.053C277.313 202.846 275.141 198.57 273.912 196.675C266.498 185.34 253.636 180.133 238.483 179.141C235.13 178.919 222.136 178.454 215.354 178.28C211.277 178.193 207.234 177.512 203.352 176.26C197.494 174.107 192.395 168.454 188.468 163.107C188.08 162.578 188.085 161.856 188.482 161.333C189.714 159.565 190.788 157.691 191.691 155.734C174.768 157.678 156.394 154.547 139.276 141.99C132.987 137.374 125.546 130.363 121.471 123.707C122.151 124.866 124.748 124.227 125.99 123.707C134.813 119.986 146.773 106.242 143.906 102.57C147.89 106.971 164.196 127.17 186.693 128.586C191.46 128.878 196.242 128.378 200.846 127.108C202.232 117.644 202.398 108.042 201.339 98.5369C201.455 98.7418 201.587 98.9368 201.735 99.12C203.158 100.925 207.961 101.425 214.243 98.5786C220.741 95.6354 226.204 89.7838 229.036 82.3703C229.48 81.1972 230.486 75.9911 227.779 73.9434C238.781 77.8167 250.228 88.0346 257.322 97.2875C264.539 106.796 270.213 117.381 274.134 128.656C286.469 164.425 282.013 192.684 276.55 205.053Z" fill="white"/>
<path fill-rule="evenodd" clip-rule="evenodd" d="M276.267 205.255C276.332 205.346 276.437 205.4 276.55 205.4C276.687 205.4 276.812 205.319 276.867 205.193C283.091 191.1 286.196 162.569 274.462 128.543C270.523 117.235 264.832 106.617 257.597 97.0762C251.298 88.8604 239.74 77.7863 227.895 73.616C227.733 73.5592 227.554 73.6285 227.474 73.7792C227.393 73.9299 227.433 74.1171 227.57 74.2203C230.043 76.0906 229.176 81.0194 228.711 82.2467C225.952 89.4681 220.627 95.3059 214.1 98.2625C208.068 100.994 203.368 100.632 202.005 98.902C201.869 98.7335 201.748 98.5542 201.641 98.3659C201.559 98.2217 201.387 98.1554 201.23 98.2077C201.073 98.2601 200.974 98.4163 200.995 98.5807C202.042 107.98 201.887 117.474 200.534 126.834C196.034 128.047 191.367 128.522 186.714 128.24C165.844 126.926 150.241 109.225 145.113 103.407L145.113 103.406C144.744 102.988 144.427 102.628 144.164 102.337C144.038 102.198 143.826 102.184 143.682 102.304C143.539 102.424 143.517 102.636 143.632 102.784C144.037 103.302 144.102 104.104 143.825 105.168C142.497 110.276 133.369 120.218 125.855 123.387C124.519 123.946 122.318 124.38 121.786 123.556L121.767 123.525C121.668 123.363 121.456 123.311 121.293 123.409C121.129 123.507 121.075 123.718 121.171 123.882C121.178 123.893 121.184 123.904 121.191 123.914C121.194 123.918 121.196 123.922 121.198 123.926C125.503 130.938 133.249 137.997 139.071 142.27C154.431 153.539 171.934 158.207 191.1 156.149C190.276 157.885 189.308 159.549 188.206 161.123C187.712 161.768 187.705 162.661 188.188 163.313C193.431 170.45 198.351 174.792 203.232 176.586C207.148 177.856 211.229 178.544 215.345 178.627C222.248 178.804 235.182 179.27 238.461 179.487C254.957 180.568 266.786 186.414 273.621 196.863C275.035 199.045 276.894 202.996 276.222 204.94C276.185 205.046 276.202 205.163 276.267 205.255ZM191.985 155.55C191.922 155.449 191.81 155.387 191.691 155.387C191.683 155.387 191.675 155.388 191.668 155.388C191.662 155.388 191.657 155.389 191.651 155.39C172.417 157.598 154.866 152.996 139.481 141.711C134.02 137.702 126.853 131.225 122.497 124.668C123.74 124.75 124.985 124.53 126.125 124.026C133.217 121.036 143.004 111.083 144.497 105.343C144.62 104.897 144.683 104.436 144.687 103.973C149.957 109.951 165.641 127.609 186.671 128.933C191.477 129.225 196.298 128.721 200.94 127.442C201.073 127.405 201.171 127.293 201.19 127.156C202.509 118.07 202.724 108.857 201.829 99.7196C203.708 101.369 208.406 101.604 214.387 98.8949C221.078 95.8632 226.536 89.8853 229.36 82.4934C229.668 81.6821 230.649 77.3853 228.994 74.7684C240.226 79.218 251.042 89.6667 257.047 97.4985C264.236 106.98 269.891 117.532 273.806 128.769C284.991 161.203 282.635 188.577 276.983 203.101C276.647 200.791 275.164 197.968 274.202 196.485C267.242 185.842 255.231 179.89 238.506 178.794C235.221 178.577 222.272 178.11 215.363 177.933C211.323 177.853 207.316 177.18 203.472 175.934C198.724 174.189 193.907 169.926 188.748 162.902C188.448 162.497 188.453 161.942 188.759 161.542C190.003 159.755 191.088 157.863 192.002 155.886C192.055 155.779 192.048 155.652 191.985 155.55Z" fill="black"/>
<path d="M228.897 74.6176C227.998 73.3609 226.512 72.6597 224.97 72.7643C222.639 72.7712 220.358 73.4433 218.395 74.7016L201.344 89.423L201.259 89.5328C199.557 93.0019 199.64 97.0328 201.461 99.3359C202.248 100.331 203.887 100.949 206.136 100.949C209 100.847 211.812 100.147 214.389 98.8939C221.081 95.8608 226.537 89.8839 229.357 82.4958C229.649 81.7333 230.741 77.2952 228.897 74.6176Z" fill="black"/>
<path d="M229.258 81.6068C229.201 81.8661 229.127 82.1213 229.036 82.3704C226.203 89.7838 220.741 95.6354 214.243 98.5786C211.799 99.7577 209.144 100.44 206.434 100.585C205.127 96.9252 203.429 93.4179 201.367 90.1239C199.651 87.2847 197.547 84.6994 195.115 82.4428C195.698 82.2624 196.274 82.0611 196.843 81.8389C199.355 80.8845 201.725 79.5931 203.889 78.0003C204.069 78.507 204.185 78.983 204.345 79.4897C204.72 80.6628 205.178 81.9539 206.275 82.537C208.19 83.5435 210.412 81.6416 211.266 79.6771C212.507 76.6499 212.572 73.2675 211.446 70.1951C212.432 72.3817 213.612 74.95 214.632 77.0255C215.104 77.9834 215.805 79.0732 216.888 79.0871C217.464 79.0424 218.008 78.8024 218.429 78.4068C219.518 77.5096 220.327 76.3198 220.761 74.9778C223.364 77.4665 226.211 79.6874 229.258 81.6068Z" fill="white"/>
<path fill-rule="evenodd" clip-rule="evenodd" d="M206.108 100.701L206.191 100.937L206.442 100.932C209.199 100.782 211.898 100.09 214.386 98.895C221.078 95.8632 226.536 89.8853 229.357 82.4999C229.456 82.2347 229.536 81.9627 229.595 81.6861L229.654 81.4394L229.436 81.3089C226.412 79.4003 223.585 77.1948 220.999 74.725L220.605 74.3546L220.432 74.867C220.02 76.1473 219.248 77.2823 218.21 78.1374C217.853 78.4838 217.388 78.6966 216.893 78.7401C216.187 78.7309 215.567 78.1374 214.943 76.8722C214.09 75.1351 213.019 72.8405 211.762 70.0524L211.125 70.3266C212.212 73.3126 212.149 76.5967 210.947 79.5386C210.427 80.7855 209.445 81.7827 208.206 82.3213C207.631 82.5479 206.986 82.5147 206.437 82.2304C205.488 81.7258 205.062 80.5961 204.676 79.3854C204.619 79.2047 204.568 79.0278 204.517 78.8523C204.514 78.8398 204.51 78.8274 204.507 78.815L204.5 78.7922C204.413 78.4915 204.326 78.1933 204.216 77.8839L204.059 77.4426L203.683 77.7212C201.544 79.2959 199.2 80.5724 196.717 81.5156C196.155 81.7345 195.582 81.9349 195.012 82.1115L194.426 82.2928L194.883 82.7016C197.295 84.9333 199.379 87.4946 201.074 90.3094C203.119 93.5828 204.807 97.0666 206.108 100.701ZM201.662 89.9396C200.03 87.2459 198.056 84.7754 195.789 82.5901L195.789 82.5901C196.185 82.4572 196.579 82.3145 196.967 82.1634C199.358 81.2542 201.623 80.0436 203.708 78.5608C203.744 78.6809 203.779 78.8004 203.814 78.9199C203.822 78.9491 203.831 78.9783 203.839 79.0075C203.895 79.2007 203.951 79.3953 204.014 79.5952L204.015 79.5983C204.342 80.6213 204.835 82.1651 206.113 82.8439C206.834 83.2168 207.679 83.2649 208.437 82.9761C209.861 82.3773 210.991 81.2417 211.584 79.8152C212.409 77.7911 212.736 75.5985 212.537 73.4218C213.206 74.8681 213.803 76.1252 214.321 77.179C214.794 78.1391 215.575 79.4173 216.888 79.4342C217.544 79.3892 218.165 79.1217 218.648 78.676C219.651 77.855 220.428 76.7918 220.906 75.587C223.361 77.889 226.024 79.9594 228.86 81.7715C228.82 81.9328 228.77 82.0914 228.711 82.2467C225.952 89.4681 220.627 95.306 214.101 98.2625C211.771 99.3777 209.252 100.045 206.676 100.229C205.37 96.6331 203.689 93.1842 201.662 89.9396Z" fill="black"/>
<path d="M176.954 93.7751C175.972 94.6389 174.582 94.863 173.379 94.3513C172.192 93.8377 171.162 93.0186 170.394 91.9773C163.876 83.5088 158.358 71.2224 154.415 60.956C154.998 60.3313 155.505 59.6302 156.518 58.3183C158.205 69.4107 166.098 78.7955 176.114 82.294C176.6 82.4606 177.086 82.6203 177.579 82.7521C178.44 86.5144 179.148 91.6372 176.954 93.7751Z" fill="black"/>
<path d="M188.227 83.7726C188.616 85.9661 188.831 89.9643 187.484 91.8732C186.88 92.8641 185.853 93.522 184.701 93.6572C182.84 93.7335 181.424 92.0329 180.501 90.4086C179.349 88.3817 178.502 85.5149 177.634 82.773C181.075 83.746 184.665 84.0847 188.227 83.7726Z" fill="black"/>
<path d="M194.252 19.5435C190.941 19.717 186.172 21.2164 182.278 22.5422C174.108 25.3187 159.614 32.4962 147.3 45.7613C147.043 46.032 146.793 46.2958 146.557 46.5734C145.593 39.0142 145.648 31.8506 148.557 24.7773C150.748 19.7568 153.858 15.1898 157.726 11.3109C166.375 2.55085 175.711 -0.818588 182.926 0.696373C189.48 2.07273 189.242 7.04798 189.31 9.35346C189.378 11.1915 189.804 12.9987 190.562 14.6742C191.451 16.5295 192.706 18.1858 194.252 19.5435Z" fill="white"/>
<path fill-rule="evenodd" clip-rule="evenodd" d="M146.213 46.6173L146.313 47.3972L146.822 46.798C147.054 46.5251 147.299 46.2662 147.554 45.9974C161.759 30.6961 177.809 24.4275 182.39 22.8707C186.201 21.5733 190.995 20.0616 194.271 19.8901L195.064 19.8484L194.494 19.2946C192.979 17.9658 191.749 16.3442 190.877 14.5274C190.14 12.8942 189.726 11.1339 189.657 9.3434L189.648 8.97939L189.648 8.97864C189.597 6.6224 189.492 1.72056 182.997 0.356826C175.247 -1.27075 165.708 2.73311 157.48 11.0673C153.574 14.9738 150.438 19.5799 148.236 24.6454C144.97 32.5857 145.44 40.5585 146.213 46.6173ZM157.973 11.5546C164.86 4.57931 172.653 0.693055 179.464 0.693055C180.603 0.690042 181.739 0.80499 182.855 1.03606C188.81 2.28673 188.9 6.48583 188.954 8.9943L188.963 9.36374C189.03 11.2493 189.467 13.1034 190.248 14.8206C191.028 16.4916 192.12 17.9977 193.467 19.2573C190.163 19.5973 185.735 20.9984 182.166 22.2135C177.547 23.7835 161.361 30.1043 147.049 45.5222C146.968 45.6072 146.888 45.6917 146.809 45.7758C146.107 39.9033 145.807 32.3759 148.877 24.9098C151.045 19.9272 154.131 15.3968 157.973 11.5546Z" fill="black"/>
<path d="M183.118 76.2896C182.931 76.2893 182.777 76.1401 182.772 75.9527C182.766 75.7653 182.911 75.6074 183.098 75.5961C185.102 75.3208 186.858 74.1143 187.834 72.3423C189.557 69.1621 187.827 65.8276 187.004 64.5414C186.937 64.437 186.931 64.3049 186.988 64.1948C187.045 64.0847 187.156 64.0134 187.28 64.0077C187.404 64.002 187.521 64.0628 187.588 64.1672C188.478 65.5568 190.344 69.1678 188.444 72.6731C187.347 74.6495 185.379 75.9903 183.139 76.2889L183.118 76.2896Z" fill="black"/>
<path d="M172.974 73.4082C171.837 73.4074 170.774 72.8457 170.133 71.9071C169.127 70.3673 169.443 68.1496 169.654 66.682L169.675 66.5319C169.702 66.3421 169.877 66.2101 170.067 66.237C170.257 66.264 170.389 66.4397 170.362 66.6295L170.34 66.7803C170.146 68.1445 169.851 70.2066 170.715 71.5278C171.234 72.2877 172.102 72.7338 173.022 72.7134C173.947 72.6821 174.806 72.2218 175.344 71.4682C175.415 71.3666 175.536 71.311 175.659 71.3226C175.783 71.3341 175.891 71.411 175.943 71.5241C175.994 71.6372 175.982 71.7692 175.909 71.8701C175.242 72.8017 174.18 73.3699 173.036 73.4076L172.974 73.4082Z" fill="black"/>
<path fill-rule="evenodd" clip-rule="evenodd" d="M168.856 58.9167C169.423 59.4245 170.169 59.6842 170.928 59.6376L170.98 59.6373C172.02 59.6247 174.091 59.2316 176.273 56.7373C179.253 53.3324 178.846 50.6114 177.89 49.6959C177.345 49.2159 176.622 48.9882 175.9 49.0689C173.729 49.3583 171.739 50.4311 170.304 52.0854L170.298 52.0929C167.638 55.3914 167.859 57.83 168.856 58.9167ZM169.368 58.4469C168.715 57.7362 168.29 55.6907 170.835 52.5325C172.149 51.0283 173.959 50.0454 175.935 49.7623C176.466 49.6945 177.001 49.8524 177.41 50.1975C178.061 50.8202 178.511 53.1263 175.751 56.2804C173.746 58.5713 171.896 58.9319 170.972 58.9431C170.393 58.9917 169.818 58.8138 169.368 58.4469Z" fill="black"/>
<path d="M144.181 102.357C143.773 101.84 143.169 101.515 142.514 101.458C140.527 101.218 137.69 102.814 136.232 103.97L122.714 117.461C121.751 118.65 120.026 121.917 121.171 123.88C121.609 124.474 122.333 124.787 123.066 124.699C124.117 124.658 125.151 124.43 126.122 124.025C133.213 121.036 143.002 111.085 144.497 105.345C144.832 104.06 144.725 103.055 144.181 102.357Z" fill="black"/>
<path d="M200.847 127.455C200.674 127.455 200.527 127.328 200.503 127.156C200.479 126.985 200.584 126.822 200.75 126.774C209.05 124.254 216.512 119.536 222.348 113.12C222.43 113.026 222.556 112.983 222.678 113.007C222.801 113.032 222.9 113.12 222.939 113.239C222.978 113.357 222.951 113.488 222.867 113.58C216.943 120.094 209.368 124.883 200.943 127.441C200.912 127.45 200.879 127.455 200.847 127.455Z" fill="black"/>
<path d="M191.69 156.081C191.507 156.081 191.355 155.938 191.344 155.755C191.334 155.572 191.467 155.412 191.649 155.39C196.884 154.739 202.055 153.647 207.105 152.125C218.519 148.741 229.21 141.47 235.705 132.677C235.779 132.577 235.9 132.525 236.023 132.538C236.146 132.552 236.253 132.631 236.302 132.744C236.352 132.858 236.337 132.99 236.264 133.089C229.682 142 218.856 149.365 207.303 152.791C202.215 154.323 197.006 155.423 191.732 156.079C191.718 156.081 191.704 156.082 191.69 156.081Z" fill="black"/>
<path d="M274.202 196.485C272.119 193.298 269.52 190.48 266.51 188.147L266.296 187.981L266.083 188.149C260.249 192.743 251.579 198.392 242.297 203.647L241.705 203.983L242.323 204.265C248.725 207.172 255.566 208.994 262.565 209.659C263.608 209.741 264.604 209.782 265.551 209.782C271.258 209.782 275.176 208.307 276.722 205.528L276.725 205.52C277.912 203.266 275.594 198.625 274.202 196.485Z" fill="black"/>
<path d="M201.763 175.58C191.323 185.027 176.975 201.333 170.762 214.001H170.755C162.072 218.655 154.574 225.243 148.841 233.256C149.959 231.229 148.154 226.447 144.066 221.213C139.977 215.979 131.203 208.559 125.698 205.734C122.63 204.165 116.848 201.867 114.259 203.901C123.567 192.975 134.341 183.167 146.752 175.941C158.774 168.93 173.24 163.717 188.095 162.593L188.234 162.599C188.275 162.783 188.355 162.956 188.47 163.106C192.031 167.958 196.57 173.074 201.763 175.58Z" fill="#F5FF7D"/>
<path d="M201.517 175.334C193.914 182.273 186.939 189.87 180.675 198.038C177.518 202.059 174.653 206.3 172.099 210.729C171.63 211.561 171.216 212.843 170.709 213.537C170.305 214.091 168.827 214.672 168.07 215.123C160.392 219.699 153.743 225.813 148.541 233.081L149.141 233.431C150.681 230.22 147.624 225.672 145.925 223.172C143.12 219.248 139.804 215.716 136.065 212.669C132.718 209.81 129.137 206.988 125.15 205.075C122.139 203.631 117.234 201.417 114.084 203.601L114.504 204.146C132.851 182.689 157.521 165.933 186.214 163.104C186.631 163.063 187.05 163.021 187.468 162.989C189.189 162.858 187.568 162.795 188.17 163.281C188.712 163.862 189.193 164.498 189.605 165.178C190.689 166.566 191.822 167.918 193.027 169.203C195.463 171.917 198.361 174.178 201.587 175.88C201.986 176.079 202.338 175.48 201.938 175.28C199.192 173.854 196.694 171.993 194.542 169.77C192.457 167.685 189.785 165.111 188.533 162.424C188.471 162.318 188.357 162.252 188.234 162.252C185.834 162.132 183.193 162.731 180.824 163.117C177.834 163.604 174.873 164.24 171.941 165.025C166.435 166.505 161.063 168.443 155.881 170.819C145.615 175.58 136.131 181.871 127.752 189.478C122.866 193.897 118.277 198.633 114.014 203.656C113.775 203.935 114.088 204.44 114.434 204.201C117.583 202.017 122.931 204.649 125.857 206.208C129.337 208.169 132.595 210.5 135.574 213.16C138.749 215.766 141.634 218.705 144.181 221.928C145.576 223.719 146.765 225.662 147.726 227.719C148.407 229.231 149.327 231.442 148.542 233.081C148.453 233.246 148.511 233.451 148.672 233.545C148.834 233.64 149.041 233.589 149.141 233.431C153.427 227.444 158.718 222.244 164.779 218.062C165.729 217.406 166.696 216.776 167.68 216.171C168.288 215.798 170.077 214.348 170.762 214.348C170.886 214.349 171 214.283 171.062 214.176C174.751 206.734 179.812 199.976 185.104 193.61C190.317 187.295 195.966 181.352 202.008 175.825C202.339 175.524 201.847 175.035 201.517 175.334Z" fill="black"/>
<path d="M144.34 220.999C140.185 215.68 131.375 208.258 125.856 205.426C123.687 204.314 116.393 200.922 113.61 204.021C112.175 205.618 112.961 208.88 115.522 211.953L141.096 233.89C142.264 234.831 143.712 235.357 145.212 235.385C146.585 235.414 147.905 234.855 148.839 233.849C150.62 231.887 148.812 226.723 144.34 220.999Z" fill="black"/>
<path d="M242.642 204.249C250.902 199.559 259.055 194.53 266.543 188.667C266.894 188.392 266.4 187.904 266.052 188.176C258.613 194.001 250.497 198.99 242.292 203.65C242.134 203.75 242.083 203.957 242.178 204.119C242.272 204.28 242.478 204.338 242.642 204.249Z" fill="black"/>
<path d="M212.883 225.69C213.209 227.514 215.659 232.963 217.853 236.784C218.579 238.032 218.361 239.615 217.324 240.619C210.79 246.907 195.764 255.896 184.749 258.804C183.548 259.114 182.278 258.68 181.517 257.701C177.936 253.144 173.668 247.697 171.234 242.773C168.108 236.64 166.906 229.706 167.784 222.879C169.325 210.183 188.636 187.457 201.763 175.58C202.28 175.835 202.81 176.063 203.352 176.26C207.234 177.512 211.277 178.193 215.354 178.28C222.136 178.454 235.13 178.919 238.483 179.141C249.304 179.849 258.96 182.709 266.297 188.415C255.656 196.8 235.797 208.503 221.733 214.271C213.889 217.485 212.022 220.81 212.883 225.69Z" fill="#F5FF7D"/>
<path fill-rule="evenodd" clip-rule="evenodd" d="M181.244 257.915C181.9 258.756 182.905 259.249 183.972 259.253C184.264 259.253 184.555 259.215 184.838 259.14C195.997 256.193 211.042 247.146 217.564 240.869C218.716 239.754 218.959 237.998 218.154 236.612C215.981 232.826 213.539 227.386 213.225 225.629C212.463 221.313 213.644 217.961 221.865 214.593C235.405 209.039 255.433 197.418 266.512 188.687C266.596 188.621 266.645 188.52 266.645 188.414C266.644 188.307 266.595 188.206 266.51 188.141C259.51 182.697 250.088 179.552 238.506 178.794C235.221 178.577 222.272 178.11 215.363 177.933C211.323 177.853 207.316 177.179 203.471 175.934C202.941 175.741 202.422 175.519 201.916 175.269C201.789 175.205 201.635 175.227 201.529 175.323C193.739 182.485 186.586 190.311 180.153 198.712C174.842 205.691 168.326 215.541 167.44 222.837C166.56 229.731 167.774 236.731 170.923 242.927C173.394 247.926 177.747 253.465 181.244 257.915ZM168.129 222.921C169.652 210.379 189.065 187.584 201.822 175.994C202.288 176.216 202.762 176.415 203.232 176.586C207.148 177.856 211.229 178.544 215.345 178.627C222.248 178.804 235.182 179.27 238.461 179.487C249.707 180.223 258.879 183.227 265.731 188.418C254.627 197.083 234.95 208.475 221.602 213.95C214.124 217.014 211.584 220.323 212.541 225.751V225.751C212.872 227.603 215.308 233.048 217.552 236.957C218.198 238.067 218.005 239.475 217.083 240.369C210.622 246.587 195.717 255.549 184.66 258.469C183.593 258.744 182.465 258.358 181.79 257.487L181.782 257.476C178.306 253.052 173.983 247.55 171.546 242.62C168.457 236.544 167.267 229.681 168.129 222.921Z" fill="black"/>
<path d="M243.981 277.924C241.822 280.402 239.226 282.749 233.846 287.087C229.677 290.338 225.089 293.014 220.206 295.042C210.092 283.464 197.313 269.477 186.603 258.266C197.73 254.809 212.008 246.035 217.874 240.073C225.627 252.276 235.581 266.242 243.981 277.924Z" fill="white"/>
<path fill-rule="evenodd" clip-rule="evenodd" d="M219.944 295.271L220.107 295.456L220.336 295.364C225.249 293.321 229.866 290.628 234.064 287.357C239.49 282.981 242.059 280.658 244.242 278.152L244.423 277.946L244.262 277.722C235.705 265.82 225.926 252.098 218.166 239.886L217.932 239.518L217.626 239.829C211.974 245.575 197.8 254.423 186.499 257.935L185.965 258.101L186.352 258.506C197 269.652 209.873 283.739 219.944 295.271ZM220.304 294.627C210.372 283.263 197.76 269.457 187.238 258.429C198.345 254.844 212.004 246.34 217.813 240.624C225.496 252.682 235.099 266.163 243.538 277.903C241.421 280.298 238.869 282.59 233.629 286.816C229.55 289.994 225.07 292.62 220.304 294.627Z" fill="black"/>
<path d="M275.439 318.518C275.218 318.775 275.021 319.052 274.849 319.344C270.164 326.681 260.841 332.394 252.06 334.233C251.809 334.288 251.566 334.376 251.338 334.497C241.259 322.356 230.597 309.779 219.699 298.332C219.224 297.833 219.026 297.132 219.17 296.458C219.315 295.784 219.783 295.226 220.421 294.966C225.221 292.937 229.734 290.288 233.846 287.087C239.191 282.783 241.787 280.437 243.939 277.973C244.367 277.482 244.999 277.219 245.649 277.26C246.299 277.3 246.893 277.641 247.257 278.181C257.141 293.078 265.77 305.537 275.439 318.518Z" fill="#F5FF7D"/>
<path fill-rule="evenodd" clip-rule="evenodd" d="M251.071 334.719C251.137 334.799 251.235 334.845 251.338 334.844C251.395 334.845 251.451 334.831 251.501 334.804C251.699 334.698 251.912 334.621 252.131 334.573C261.387 332.634 270.634 326.589 275.176 319.477C275.327 319.221 275.501 318.978 275.695 318.752C275.808 318.629 275.817 318.444 275.718 318.31C266.632 306.113 258.206 294.055 247.545 277.989C247.129 277.36 246.441 276.962 245.687 276.915C244.924 276.861 244.18 277.168 243.677 277.744C241.549 280.183 238.919 282.557 233.629 286.816C229.541 289.993 225.057 292.625 220.289 294.645C219.545 294.948 218.999 295.6 218.831 296.386C218.662 297.171 218.893 297.99 219.448 298.571C230.533 310.214 241.198 322.825 251.071 334.719ZM244.199 278.202C244.532 277.821 245.014 277.602 245.52 277.603C245.56 277.603 245.601 277.604 245.641 277.607C246.179 277.64 246.67 277.924 246.967 278.373C257.571 294.354 265.965 306.372 274.997 318.506C274.844 318.703 274.708 318.918 274.557 319.156L274.556 319.157C270.142 326.069 261.074 331.99 251.988 333.894C251.798 333.935 251.612 333.993 251.433 334.068C241.6 322.226 230.986 309.683 219.951 298.093C219.554 297.678 219.389 297.092 219.51 296.53C219.631 295.968 220.022 295.502 220.554 295.286C225.382 293.24 229.924 290.575 234.064 287.357C239.389 283.069 242.042 280.673 244.199 278.202Z" fill="black"/>
<path d="M220.298 295.377C225.353 293.307 230.087 290.526 234.356 287.119C237.811 284.341 241.291 281.51 244.226 278.17C244.52 277.835 244.031 277.343 243.735 277.679C241.015 280.625 238.055 283.341 234.887 285.799C230.425 289.476 225.448 292.477 220.114 294.707C219.707 294.875 219.885 295.547 220.298 295.377Z" fill="black"/>
<path d="M292.39 335.469C292.06 335.766 291.781 336.116 291.564 336.503C289.537 339.363 286.948 342.632 283.165 346.992C271.205 360.791 256.44 370.474 239.607 380.588C239.027 380.913 238.5 381.325 238.046 381.81C236.61 380.294 235.528 378.478 234.88 376.493C233.61 372.015 236.817 367.955 240.399 364.984C246.729 359.75 249.457 355.779 249.992 345.728C250.124 343.299 249.971 339.946 249.874 337.065C249.819 335.716 250.741 334.522 252.06 334.233C260.841 332.394 270.164 326.681 274.849 319.344C275.122 318.781 275.563 318.317 276.112 318.018C277.397 317.504 278.561 318.7 279.486 319.559C283.869 323.63 287.747 328.279 292.39 335.469Z" fill="white"/>
<path fill-rule="evenodd" clip-rule="evenodd" d="M237.784 382.039L238.045 382.338L238.307 382.039C238.738 381.581 239.237 381.192 239.787 380.886C255.687 371.332 270.99 361.569 283.427 347.22C287.027 343.071 289.702 339.73 291.846 336.705C291.913 336.612 291.977 336.514 292.041 336.418L292.048 336.408C292.188 336.158 292.372 335.936 292.591 335.752L292.862 335.56L292.682 335.28C288.225 328.379 284.349 323.601 279.722 319.305L279.559 319.152C278.646 318.299 277.397 317.132 275.984 317.695C275.365 318.018 274.865 318.53 274.556 319.157C270.142 326.069 261.074 331.99 251.989 333.894C250.502 334.212 249.462 335.557 249.527 337.077L249.568 338.257L249.57 338.298C249.658 340.802 249.758 343.632 249.645 345.71C249.109 355.778 246.415 359.559 240.177 364.717C235.411 368.669 233.465 372.773 234.546 376.587C235.217 378.618 236.322 380.478 237.784 382.039ZM276.241 318.34C276.401 318.276 276.572 318.243 276.744 318.243C277.569 318.243 278.365 318.986 279.081 319.656L279.084 319.659L279.25 319.813C283.775 324.016 287.579 328.69 291.935 335.404C291.76 335.596 291.603 335.805 291.468 336.027C291.459 336.04 291.45 336.053 291.442 336.066C291.389 336.145 291.337 336.225 291.28 336.302C289.15 339.31 286.487 342.634 282.903 346.765C270.532 361.037 255.28 370.767 239.429 380.29C238.937 380.574 238.478 380.911 238.06 381.295C236.777 379.881 235.807 378.213 235.214 376.398C234.199 372.818 236.017 369.068 240.62 365.252C246.899 360.061 249.792 356.012 250.338 345.747C250.453 343.63 250.356 340.89 250.262 338.24L250.262 338.232L250.221 337.052C250.168 335.87 250.975 334.823 252.131 334.573C261.387 332.634 270.634 326.589 275.157 319.507C275.393 319.018 275.771 318.611 276.241 318.34Z" fill="black"/>
<path d="M299.521 341.247C298.522 339.641 297.328 338.166 295.965 336.856C295.677 336.553 295.389 336.248 295.093 335.93C293.772 334.642 292.846 334.768 292.303 335.103C291.954 335.345 291.665 335.665 291.459 336.037C291.401 336.125 291.344 336.214 291.283 336.3C289.179 339.274 286.517 342.6 282.905 346.767C270.529 361.045 255.277 370.772 239.427 380.29C237.565 381.41 236.824 382.527 237.025 383.915C237.261 385.003 237.772 386.012 238.509 386.845C239.312 387.966 240.301 388.942 241.434 389.73C242.1 390.171 242.881 390.405 243.68 390.404C244.415 390.386 245.141 390.24 245.826 389.972C260.794 381.948 279.458 367.386 290.203 355.347C294.59 350.432 297.101 347.406 299.514 343.503C299.917 342.806 299.92 341.947 299.521 341.247Z" fill="black"/>
<path d="M111.698 280.652C101.225 295.391 91.8483 309.411 82.3214 322.28C82.0743 322.069 81.7823 321.917 81.4677 321.836C71.472 319.205 61.2959 310.667 57.5961 303.497C65.2002 291.055 74.2012 274.736 82.3353 260.911C83.1443 259.536 85.2369 259.564 86.2017 260.446C92.4907 266.2 103.09 274.12 110.878 277.494C111.458 277.753 111.889 278.261 112.048 278.876C112.208 279.491 112.079 280.144 111.698 280.652Z" fill="#F5FF7D"/>
<path fill-rule="evenodd" clip-rule="evenodd" d="M82.096 322.544C82.1588 322.597 82.2389 322.627 82.3217 322.627C82.3348 322.627 82.348 322.626 82.361 322.625C82.4567 322.614 82.5435 322.564 82.601 322.487C88.4537 314.58 94.1961 306.317 100.275 297.569L100.279 297.563L100.341 297.475C104.089 292.082 107.963 286.507 111.98 280.854V280.853C112.426 280.236 112.567 279.451 112.365 278.717C112.172 278.026 111.677 277.459 111.017 277.176C103.515 273.926 92.9725 266.171 86.4357 260.189C85.7403 259.614 84.8299 259.367 83.9391 259.514C83.1511 259.607 82.4497 260.057 82.0363 260.734C78.7385 266.34 75.2447 272.447 71.8668 278.354C66.9272 286.99 61.8194 295.921 57.3 303.316C57.2369 303.419 57.2323 303.548 57.2878 303.656C60.8609 310.581 70.8494 319.4 81.3801 322.171C81.6437 322.24 81.8884 322.367 82.096 322.544ZM81.5557 321.5C71.3002 318.801 61.574 310.273 57.9948 303.51V303.51C62.4939 296.139 67.5644 287.275 72.4694 278.699L72.4869 278.668C75.8586 272.773 79.3441 266.679 82.6342 261.087C82.943 260.591 83.4617 260.264 84.0421 260.2C84.7261 260.084 85.4267 260.267 85.9673 260.702C92.5467 266.722 103.168 274.533 110.741 277.813C111.21 278.01 111.563 278.413 111.697 278.904C111.842 279.436 111.738 280.005 111.415 280.452V280.451C107.373 286.139 103.477 291.745 99.7092 297.167C93.7025 305.811 88.0247 313.981 82.2471 321.797C82.0328 321.664 81.7997 321.564 81.5557 321.5Z" fill="black"/>
<path d="M111.223 278.135C111.086 277.997 110.923 277.889 110.744 277.814C103.168 274.532 92.5468 266.722 85.9673 260.702C85.5275 260.328 84.9595 260.139 84.3831 260.175L84.3696 259.481C85.1223 259.451 85.8591 259.703 86.4351 260.189C92.9725 266.171 103.515 273.926 111.017 277.176C111.277 277.285 111.514 277.444 111.714 277.644L111.223 278.135Z" fill="black"/>
<path d="M110.981 277.935C110.905 277.889 110.825 277.848 110.742 277.813C103.168 274.532 92.5468 266.722 85.9673 260.702C85.7518 260.503 85.4876 260.364 85.2013 260.3L85.3423 259.621C85.7496 259.71 86.1261 259.906 86.4337 260.187C92.9725 266.171 103.515 273.926 111.017 277.176C111.13 277.224 111.24 277.28 111.346 277.344L110.981 277.935Z" fill="black"/>
<path d="M82.9949 324.258C80.9227 332.727 76.2686 341.508 73.6725 344.028C65.3728 341.201 57.3172 337.702 49.5857 333.567C37.3579 326.924 21.9796 311.75 13.5527 302.143C12.1575 300.553 10.5124 298.797 8.54102 298.374L8.60349 298.159C9.63082 295.722 13.5597 294.501 16.6694 295.542C19.1753 296.382 21.4243 298.346 23.6386 299.811C28.574 303.08 34.006 305.798 40.0968 306.114C44.525 306.343 50.4394 304.475 54.8334 302.435C55.8635 301.976 57.0712 302.419 57.5614 303.434C61.2334 310.632 71.4442 319.198 81.4677 321.836C82.5509 322.094 83.2293 323.17 82.9949 324.258Z" fill="white"/>
<path fill-rule="evenodd" clip-rule="evenodd" d="M73.5656 344.358L73.7649 344.422L73.9147 344.276C76.7245 341.548 81.349 332.443 83.3318 324.341C83.6112 323.069 82.822 321.807 81.5557 321.5C71.1531 318.763 61.3442 310.085 57.8701 303.276C57.2986 302.091 55.8859 301.578 54.6868 302.12C50.5654 304.034 44.5662 305.994 40.1153 305.767C33.4463 305.421 27.6275 302.037 23.83 299.521C23.2436 299.133 22.6546 298.71 22.0594 298.282C20.4596 297.005 18.6808 295.971 16.7801 295.212C13.4267 294.092 9.37705 295.43 8.27008 298.062L8.10468 298.635L8.4687 298.714C10.3017 299.107 11.8567 300.736 13.2918 302.372C20.6813 310.796 36.6059 326.911 49.4204 333.872C57.1701 338.019 65.2453 341.525 73.5656 344.358ZM13.8137 301.914C12.397 300.3 10.8623 298.69 8.99676 298.133C10.0468 295.995 13.6497 294.9 16.5591 295.871C18.3928 296.61 20.1091 297.612 21.654 298.846L21.6596 298.85C22.261 299.282 22.8557 299.709 23.447 300.1C27.3122 302.66 33.2409 306.105 40.0786 306.46C45.8494 306.769 52.9426 303.695 54.9803 302.749C55.8409 302.367 56.8493 302.741 57.2519 303.592C60.7951 310.536 70.7884 319.385 81.3808 322.172C82.2805 322.382 82.8478 323.272 82.6579 324.176C80.583 332.655 76.0412 341.084 73.5771 343.632C65.3693 340.821 57.4015 337.354 49.7512 333.262C37.0228 326.347 21.1727 310.304 13.8137 301.914Z" fill="black"/>
<path fill-rule="evenodd" clip-rule="evenodd" d="M57.2472 362.904C57.6764 362.96 58.1089 362.988 58.5419 362.988C61.259 362.982 63.8718 361.941 65.848 360.076C67.1436 358.907 67.9221 357.272 68.0125 355.53C67.9584 353.913 67.2311 352.393 66.0066 351.337V351.336C62.5671 348.02 57.7813 345.379 53.1535 342.825C50.1494 341.259 47.2483 339.504 44.4679 337.569C43.0661 336.529 41.6688 335.511 40.2817 334.5L40.179 334.425L40.1766 334.423C33.0856 329.256 26.3876 324.375 20.4542 317.863C19.4963 316.812 18.546 315.713 17.6274 314.651C15.2121 311.682 12.5286 308.942 9.6109 306.465C8.22668 305.364 6.11375 303.918 3.79542 304.103C1.31033 304.299 0.17557 306.01 0 309.851C0.164047 316.319 3.97098 321.147 7.67354 325.016C10.8785 328.365 14.7166 331.094 18.4287 333.733C19.4624 334.468 20.4955 335.203 21.5157 335.951C29.3919 341.72 35.2203 346.89 39.8597 352.22C45.3335 358.509 51.1836 362.103 57.2472 362.904ZM3.84966 304.795C3.96626 304.786 4.08218 304.781 4.1974 304.781C6.14561 304.781 7.95892 306.037 9.17846 307.009C12.0625 309.459 14.7149 312.169 17.1021 315.105C18.024 316.171 18.9771 317.272 19.9417 318.331C25.9224 324.894 32.648 329.796 39.7688 334.985L39.7695 334.986C41.1897 336.02 42.6193 337.062 44.0544 338.126C46.8591 340.08 49.7863 341.853 52.8179 343.432C57.4065 345.964 62.1509 348.583 65.5254 351.837V351.836C66.6107 352.764 67.2604 354.103 67.3183 355.53C67.2269 357.084 66.5249 358.539 65.3654 359.577C63.2148 361.606 60.2729 362.573 57.338 362.215C51.4473 361.438 45.743 357.922 40.383 351.765C35.7091 346.395 29.8448 341.191 21.9265 335.391C20.9331 334.663 19.9282 333.948 18.923 333.233L18.8314 333.168L18.8224 333.162C15.1395 330.543 11.3315 327.835 8.17517 324.537C4.56481 320.764 0.852095 316.065 0.69347 309.858C0.877855 305.848 2.08854 304.934 3.84966 304.795Z" fill="black"/>
<path d="M65.6065 359.826C63.3825 361.935 60.332 362.938 57.2907 362.561C53.3479 362.041 47.1215 360.035 40.1245 351.989C34.731 345.798 28.3449 340.522 21.7227 335.67C16.9887 332.199 11.9839 329.013 7.92317 324.779C3.86938 320.538 0.502781 315.929 0.35007 309.841C0.34675 308.594 0.59463 307.36 1.07892 306.211C1.56824 305.136 2.64023 304.447 3.82079 304.448C5.87575 304.292 7.78434 305.454 9.39476 306.738C9.90842 307.148 10.4082 307.564 10.8941 308.002C14.2954 311.049 16.9557 314.872 20.1956 318.094C42.0181 339.801 59.3801 345.867 65.4885 351.33C65.5856 351.413 65.6759 351.504 65.7661 351.587C68.9523 354.662 67.5918 357.91 65.6065 359.826Z" fill="white"/>
<path fill-rule="evenodd" clip-rule="evenodd" d="M57.2458 362.906C57.6724 362.961 58.1022 362.989 58.5324 362.988C61.2527 362.984 63.869 361.942 65.848 360.075C67.1434 358.908 67.9222 357.273 68.0132 355.532C67.9584 353.912 67.2292 352.39 66.0019 351.332L65.9131 351.249L65.91 351.246C65.8466 351.186 65.7826 351.125 65.7199 351.071C63.7721 349.329 60.6798 347.518 56.7647 345.225L56.7584 345.221L56.7551 345.219C48.2342 340.229 35.358 332.687 20.4406 317.849C19.0327 316.448 17.7088 314.903 16.429 313.409C14.7873 311.407 13.016 309.515 11.1266 307.744C10.6772 307.339 10.181 306.921 9.61089 306.467C8.23142 305.368 6.14018 303.937 3.79406 304.101C2.49801 304.133 1.32902 304.888 0.768031 306.057C0.260909 307.257 0.000629349 308.547 0.00271016 309.85C0.165396 316.316 3.97098 321.147 7.67285 325.019C10.8731 328.356 14.7038 331.081 18.4083 333.716C19.4489 334.456 20.4894 335.196 21.5171 335.95C29.3919 341.72 35.2217 346.889 39.8631 352.217C45.3349 358.509 51.1829 362.105 57.2458 362.906ZM3.84692 304.794C3.9608 304.785 4.07401 304.781 4.18654 304.781H4.18655C6.14696 304.781 7.96027 306.039 9.17842 307.009C9.73768 307.455 10.223 307.864 10.6623 308.26C12.5292 310.01 14.2794 311.881 15.9016 313.861L15.9159 313.877C17.2007 315.376 18.5289 316.926 19.9512 318.341C34.9321 333.243 47.8553 340.812 56.4067 345.82L56.408 345.82L56.4193 345.827C60.2981 348.099 63.3621 349.893 65.2623 351.593C65.3149 351.639 65.3653 351.686 65.415 351.733L65.4352 351.752L65.5247 351.837C66.6109 352.765 67.2612 354.104 67.319 355.532C67.2272 357.085 66.5249 358.539 65.3654 359.577C63.2141 361.606 60.2718 362.573 57.336 362.217C51.4466 361.439 45.7436 357.922 40.3864 351.761C35.7104 346.393 29.8448 341.191 21.9279 335.39C20.8975 334.635 19.8542 333.893 18.8103 333.15C15.1322 330.534 11.3293 327.829 8.1738 324.539C4.56479 320.763 0.853431 316.062 0.696166 309.857C0.694039 308.64 0.938232 307.436 1.41404 306.316C1.8783 305.395 2.81583 304.809 3.84692 304.794Z" fill="black"/>
<path d="M73.7785 343.694C66.7286 341.413 56.5686 337.304 49.7627 333.269C38.2057 326.415 22.9298 312.307 13.8137 301.914C11.9414 299.779 9.87932 297.708 7.25326 297.952C5.05899 298.152 2.87352 300.886 0.757874 306.08L1.39033 306.366C1.83213 305.407 2.7918 304.793 3.84759 304.794C5.94087 304.632 7.88772 305.981 9.1784 307.01C11.7707 309.208 14.1553 311.64 16.3022 314.275C17.4735 315.627 18.6856 317.024 19.9457 318.335C34.6739 333.651 47.8077 341.084 56.4987 346.004C60.5246 348.282 63.7045 350.082 65.5246 351.837C66.6109 352.765 67.2612 354.104 67.319 355.532C67.2272 357.085 66.5249 358.539 65.3654 359.577L65.8202 360.099C68.9086 357.687 74.0184 349.175 74.0184 344.024V343.772L73.7785 343.694Z" fill="black"/>
<path d="M250.108 281.843L249.831 282.325C245.321 290.127 233.094 298.764 223.877 302.607L224.01 302.927L224.01 302.927L224.011 302.928L224.144 303.248C224.181 303.232 224.22 303.215 224.258 303.199L228.348 307.689L228.349 307.689L228.489 308.007C236.228 304.589 247.557 297.313 254.018 288.056L254.154 287.861L250.108 281.843Z" fill="black"/>
<path d="M259.859 296.254C259.319 295.476 258.867 294.802 258.402 294.109C258.054 293.591 257.699 293.062 257.296 292.472L257.019 292.066L256.729 292.463C251.066 300.226 242.213 307.397 232.438 312.138L232.027 312.338L233.288 313.767C233.966 314.533 234.521 315.159 235.368 316.148L235.538 316.346L235.775 316.238C244.612 312.215 255.491 304.589 259.878 296.62L259.982 296.431L259.859 296.254Z" fill="black"/>
<path d="M108.275 285.263C98.95 283.182 86.05 273.317 79.8529 265.41L79.5363 265.006L79.2794 265.45C78.2097 267.297 77.131 269.17 76.0432 271.068L75.9246 271.276L76.0771 271.461C81.9658 278.61 93.367 287.807 104.483 291.106L104.725 291.177L104.868 290.97C106.054 289.257 107.259 287.534 108.483 285.802L108.782 285.376L108.275 285.263Z" fill="black"/>
<path d="M101.435 295.101C91.9638 292.306 82.0343 285.683 73.4748 276.45L73.1528 276.102L70.3125 281.107L70.4528 281.29C75.905 288.377 86.656 296.877 98.386 299.891L98.6192 299.951L101.896 295.237L101.435 295.101Z" fill="black"/>
<path d="M233.784 65.2666C232.437 65.9885 229.653 65.6415 227.779 63.6979C228.268 65.0848 228.603 66.521 228.779 67.9808C228.966 69.7647 228.369 73.1313 226.203 73.645C224.857 73.9573 223.753 73.0619 222.76 71.2363C221.997 69.8341 220.525 66.8979 219.866 65.5235C221.844 69.7786 222.059 75.4428 218.429 78.4068C218.008 78.8024 217.464 79.0424 216.888 79.0871C215.805 79.0732 215.104 77.9834 214.632 77.0255C213.612 74.95 212.432 72.3817 211.446 70.1951C212.572 73.2675 212.507 76.6499 211.265 79.6771C210.412 81.6416 208.19 83.5435 206.275 82.537C205.178 81.9539 204.72 80.6628 204.345 79.4897C199.479 64.4823 188.463 48.8502 174.039 41.9366C174.17 41.8533 174.302 41.763 174.441 41.6728C183.194 35.9183 192.274 32.6073 201.818 32.3921C202.121 32.3879 202.419 32.3193 202.693 32.1908C213.431 35.488 224.301 43.2763 231 52.1405C232.902 54.6672 234.623 57.416 235.241 60.8173C235.679 63.2259 234.887 64.6697 233.784 65.2666Z" fill="black"/>
<path d="M201.817 32.3927C202.531 32.373 203.191 32.011 203.591 31.4201C203.992 30.8293 204.083 30.0818 203.837 29.4118C203.486 28.4535 200.737 21.3878 197.182 19.9491C194.527 18.5909 187.597 20.7369 182.28 22.542C174.109 25.3154 159.612 32.4962 147.301 45.7643C146.025 47.0962 144.905 48.4585 144.752 50.297C144.722 51.2499 144.881 52.1993 145.22 53.0904C146.15 56.0461 147.563 58.827 149.404 61.3194C149.817 62.0591 150.516 62.5959 151.337 62.8031C152.077 62.8102 152.787 62.5188 153.309 61.9949C154.716 60.814 155.01 60.251 156.973 57.7378C164.112 49.1669 167.922 45.9515 174.438 41.6727C183.197 35.9204 192.271 32.6085 201.817 32.3927Z" fill="white"/>
<path fill-rule="evenodd" clip-rule="evenodd" d="M151.299 63.148C151.373 63.1562 151.448 63.1604 151.523 63.1605C152.278 63.1077 152.99 62.7889 153.532 62.2607C154.543 61.402 155.436 60.4138 156.188 59.3217C156.483 58.9377 156.826 58.4893 157.239 57.9599C164.486 49.2594 168.301 46.1181 174.629 41.9627C183.764 35.9635 192.66 32.9467 201.826 32.7399C202.651 32.7175 203.415 32.299 203.879 31.6156C204.342 30.9321 204.448 30.0674 204.164 29.2922C203.859 28.4639 201.083 21.1537 197.34 19.64C194.672 18.2757 188.173 20.1752 182.168 22.2132C177.549 23.7814 161.365 30.0965 147.051 45.5243C145.804 46.8251 144.573 48.2629 144.406 50.268C144.372 51.2669 144.537 52.2626 144.89 53.1975C145.829 56.1883 147.26 59.002 149.123 61.5231C149.589 62.3452 150.378 62.9344 151.299 63.148ZM182.392 22.8707C185.254 21.899 191.211 19.8769 194.878 19.8769C195.623 19.8411 196.367 19.9758 197.052 20.2707C200.606 21.7092 203.395 29.2129 203.511 29.5315C203.723 30.0995 203.644 30.735 203.299 31.2333C202.965 31.7313 202.409 32.0347 201.809 32.0458C192.511 32.2559 183.495 35.3097 174.248 41.3825C167.859 45.5778 164.01 48.7465 156.699 57.5243C156.278 58.0643 155.933 58.514 155.637 58.8997C154.916 59.9518 154.058 60.9032 153.086 61.7292C152.639 62.1951 152.022 62.4583 151.376 62.4579C150.654 62.2584 150.044 61.7739 149.685 61.1157C147.865 58.6532 146.468 55.9048 145.55 52.9833C145.223 52.1366 145.069 51.2329 145.098 50.3257C145.246 48.5466 146.392 47.2156 147.556 46.0001C161.763 30.688 177.811 24.4254 182.392 22.8707Z" fill="black"/>
<path d="M211.446 70.5422C211.309 70.5423 211.185 70.4617 211.129 70.3365C209.531 66.7549 203.576 54.4763 194.035 46.8444C193.886 46.7246 193.861 46.5061 193.981 46.3563C194.101 46.2066 194.32 46.1823 194.469 46.3021C204.132 54.0319 210.149 66.436 211.763 70.0538C211.811 70.1612 211.801 70.2856 211.737 70.3842C211.673 70.4828 211.564 70.5423 211.446 70.5422H211.446Z" fill="white"/>
<path d="M219.866 65.8707C219.729 65.8706 219.606 65.7909 219.549 65.6666C215.452 56.6045 209.778 49.6803 202.682 45.0867C202.578 45.0194 202.518 44.9016 202.524 44.7778C202.53 44.6539 202.602 44.5428 202.713 44.4863C202.823 44.4297 202.955 44.4364 203.059 44.5037C210.268 49.1712 216.029 56.1951 220.182 65.3806C220.231 65.488 220.221 65.6128 220.157 65.7118C220.093 65.8108 219.984 65.8706 219.866 65.8706V65.8707Z" fill="white"/>
<path d="M227.781 64.0475C227.636 64.0474 227.507 63.9573 227.456 63.8214C226.038 60.0019 222.27 49.8572 210.426 43.1022C210.317 43.0416 210.249 42.9268 210.248 42.8017C210.246 42.6766 210.313 42.5606 210.421 42.498C210.529 42.4355 210.663 42.4361 210.771 42.4996C222.833 49.379 226.664 59.6959 228.107 63.5794C228.173 63.7592 228.082 63.9589 227.902 64.0258C227.863 64.0403 227.823 64.0476 227.781 64.0475Z" fill="white"/>
<ellipse cx="173.26" cy="54.6121" rx="2.31661" ry="3.40935" transform="rotate(-37.2666 173.26 54.6121)" fill="black"/>
<path d="M161.38 70.6531L160.945 70.1121C161.078 70.005 161.213 69.8911 161.346 69.7705C161.632 69.5088 161.902 69.2316 162.157 68.9401L162.228 68.8784C164.964 65.7436 164.515 63.4347 163.865 62.8097C162.776 61.7722 160.05 62.7267 158.191 64.2705L157.747 63.7364C159.873 61.9715 162.922 60.9534 164.345 62.3081C165.3 63.228 165.706 65.951 162.728 69.3478L162.674 69.4027C162.404 69.7117 162.117 70.0056 161.814 70.2833C161.667 70.4158 161.523 70.5378 161.38 70.6531Z" fill="black"/>
<path d="M162.274 68.9579C162.175 69.1919 162.031 69.4038 161.849 69.5815C161.709 69.6917 161.553 69.7792 161.386 69.8406C161.204 69.9047 161.014 69.9403 160.821 69.9463C159.77 68.0042 158.926 65.9564 158.305 63.8371C159.301 63.63 160.609 64.2178 161.535 65.3906C162.485 66.593 162.758 68.0391 162.274 68.9579Z" fill="black"/>
<path d="M142.115 109.456C138.957 114.266 132.98 120.055 127.684 122.894C126.197 121.1 124.585 119.414 122.859 117.848C117.834 113.322 111.663 109.789 104.895 109.171C101.341 108.852 98.4657 108.367 96.6204 107.251C93.8709 105.587 91.3454 102.507 89.2629 100.05C84.9315 94.9413 81.4816 91.5053 75.8799 87.8264C74.2625 86.7713 71.6108 85.2164 69.8408 83.5851C68.0291 81.9053 67.6543 79.5036 69.5493 77.671C71.6109 76.1092 74.0959 77.6641 74.9358 78.1361C80.5112 81.2727 85.8599 84.796 90.9428 88.6802C90.1198 87.7998 89.5282 86.7289 89.2213 85.5635C88.8213 83.878 89.5933 82.1325 91.1094 81.2945C92.6568 80.4917 94.5239 80.6258 95.9406 81.6415C95.1285 80.4615 95.5241 78.3374 96.2946 77.1296C96.9839 75.9717 98.1966 75.2248 99.5408 75.1301C101.067 75.0151 102.576 75.5179 103.729 76.5257C103.191 74.7804 103.784 72.884 105.221 71.7569C108.699 69.5912 112.718 73.3188 114.641 75.0402C116.311 76.5718 117.846 78.2438 119.229 80.0381C120.617 75.6511 121.138 70.5214 121.978 63.3162C122.221 61.2337 122.915 57.7769 125.581 56.8329C129.565 55.4168 130.21 59.9218 130.051 62.386C129.919 64.5587 130.009 66.7244 130.051 68.8971C130.127 72.9925 132.099 76.963 131.627 81.0307C131.134 85.3274 127.885 89.5409 129.378 93.6016C130.405 96.399 133.438 100.37 136.735 104.021C138.54 106.013 140.428 107.908 142.115 109.456Z" fill="white"/>
<path fill-rule="evenodd" clip-rule="evenodd" d="M127.417 123.116C127.483 123.196 127.58 123.242 127.684 123.242C127.741 123.241 127.797 123.227 127.848 123.201C132.907 120.488 139.029 114.788 142.405 109.646C142.499 109.504 142.475 109.315 142.35 109.2C140.611 107.605 138.709 105.683 136.993 103.788C133.183 99.5691 130.595 95.909 129.704 93.4818C128.81 91.0527 129.7 88.5567 130.642 85.9137C131.265 84.3543 131.711 82.7297 131.971 81.0707C132.243 78.7269 131.721 76.4004 131.216 74.1509C130.769 72.4291 130.495 70.6669 130.398 68.8906L130.372 67.7036C130.331 65.9662 130.29 64.1699 130.397 62.4084C130.442 61.7156 130.57 58.1883 128.692 56.7695C127.737 56.1202 126.512 56.0201 125.464 56.5058C123.359 57.2515 122.07 59.5292 121.633 63.2758L121.445 64.8962C120.745 70.9486 120.228 75.4121 119.097 79.2797C117.795 77.684 116.384 76.181 114.873 74.7816L114.738 74.6617C112.765 72.8914 108.658 69.2099 105.037 71.4624C103.83 72.2162 103.061 74.1024 103.184 75.6673C102.079 74.9996 100.794 74.6912 99.5065 74.7847C98.0566 74.8905 96.7491 75.6957 96.0019 76.9427C95.271 78.1179 95.0023 79.5226 95.2481 80.8845C93.8797 80.2227 92.2759 80.2621 90.9416 80.9903C89.293 81.8992 88.4505 83.7941 88.8802 85.627C88.9911 86.1442 89.1758 86.6427 89.4285 87.1074C84.8502 83.7235 80.0668 80.6263 75.1057 77.8335L74.9763 77.7599L74.9739 77.7585C74.0169 77.2132 71.4834 75.7693 69.3079 77.4216C68.4498 78.1947 67.9559 79.2927 67.9467 80.4477C68.0086 81.7588 68.6087 82.9864 69.6055 83.8404C71.177 85.1806 72.8592 86.3854 74.6339 87.442C75.0163 87.684 75.3728 87.91 75.6894 88.1164C81.3808 91.8539 84.7573 95.2728 88.9981 100.274L89.3499 100.69L89.3503 100.69C91.331 103.033 93.7956 105.947 96.4405 107.548C98.5094 108.799 101.712 109.234 104.863 109.517C110.852 110.064 116.994 113.034 122.626 118.105C124.34 119.66 125.941 121.334 127.417 123.116ZM69.7587 77.9477C70.2844 77.5454 70.9297 77.331 71.5916 77.3386C72.6752 77.4183 73.721 77.7706 74.6318 78.3629L74.7654 78.4385C80.326 81.5681 85.6612 85.0824 90.732 88.9557C90.8747 89.0648 91.077 89.0471 91.1985 88.9148C91.32 88.7826 91.3206 88.5795 91.1998 88.4466C90.4204 87.6129 89.858 86.6004 89.562 85.4982C89.1952 83.9615 89.8951 82.3683 91.275 81.599C92.6586 80.8432 94.1675 80.9574 95.7592 81.937C95.8989 82.0227 96.0796 81.9991 96.1925 81.8802C96.3054 81.7613 96.3198 81.5796 96.2269 81.4445C95.5314 80.4345 95.8588 78.4581 96.5862 77.3172C97.2173 76.2479 98.3353 75.5587 99.5743 75.4755C100.998 75.3697 102.406 75.8365 103.484 76.7722C103.601 76.8885 103.784 76.9062 103.921 76.8147C104.059 76.7232 104.112 76.5478 104.05 76.395C103.572 74.8064 104.108 73.0865 105.405 72.0515C108.581 70.0724 112.286 73.3941 114.275 75.1786L114.408 75.2982C116.059 76.8117 117.576 78.4639 118.945 80.2365C119.02 80.345 119.151 80.4011 119.281 80.3813C119.412 80.3614 119.52 80.269 119.56 80.143C120.852 76.0601 121.39 71.4106 122.135 64.9759L122.323 63.3564C122.726 59.8945 123.861 57.8101 125.696 57.16C126.525 56.762 127.501 56.8239 128.273 57.3234C129.51 58.2575 129.817 60.6222 129.704 62.365C129.595 64.1567 129.637 65.9679 129.678 67.7196L129.704 68.9035C129.8 70.7268 130.08 72.5358 130.539 74.3031C131.054 76.597 131.54 78.7638 131.281 80.991C131.026 82.5975 130.592 84.1706 129.988 85.6809L129.987 85.6826C129.046 88.3247 128.072 91.057 129.052 93.7211C130.294 97.1058 134.238 101.773 136.478 104.254C138.137 106.085 139.969 107.942 141.662 109.511C138.368 114.418 132.607 119.784 127.768 122.454C126.322 120.728 124.759 119.103 123.092 117.59C117.347 112.417 111.066 109.386 104.926 108.826C102.004 108.563 98.7534 108.135 96.7998 106.954C94.2523 105.412 91.8275 102.545 89.88 100.242L89.5282 99.8257C85.3457 94.8928 81.8025 91.3008 76.0697 87.5355C75.7497 87.3271 75.3905 87.0993 75.0054 86.8553C73.2666 85.8207 71.6178 84.6416 70.0766 83.3307C69.2211 82.6056 68.7018 81.5603 68.6409 80.4405C68.6513 79.4904 69.0562 78.5874 69.7587 77.9477Z" fill="black"/>
<path d="M148.251 228.071C146.474 229.876 144.544 232.007 142.504 234.374C137.888 239.733 124.164 258.731 111.177 277.647C111.08 277.591 110.983 277.543 110.879 277.494C103.09 274.121 92.4907 266.2 86.2018 260.446C85.9076 260.187 85.5551 260.004 85.1744 259.911C88.1037 253.817 109.865 215.681 114.287 209.551C115.981 207.219 117.612 205.116 119.16 203.332C121.435 203.841 123.634 204.649 125.698 205.734C131.203 208.559 139.977 215.979 144.066 221.213C145.754 223.307 147.161 225.612 148.251 228.071Z" fill="white"/>
<path fill-rule="evenodd" clip-rule="evenodd" d="M111.004 277.948L111.282 278.107L111.463 277.843C124.778 258.451 138.236 239.861 142.767 234.6C144.932 232.089 146.807 230.033 148.499 228.314L148.66 228.15L148.572 227.937C147.469 225.45 146.046 223.118 144.339 220.999C140.183 215.679 131.373 208.255 125.857 205.425C123.761 204.33 121.532 203.512 119.226 202.991L119.029 202.953L118.897 203.104C117.419 204.809 115.818 206.851 114.006 209.348C109.54 215.538 87.6858 253.884 84.8617 259.761L84.6794 260.141L85.0861 260.247C85.4123 260.325 85.7147 260.481 85.9673 260.702C92.5468 266.722 103.168 274.533 110.733 277.809C110.828 277.853 110.916 277.897 111.004 277.948ZM86.4371 260.191C86.2091 259.985 85.946 259.821 85.6603 259.708C89.0984 252.806 110.196 215.816 114.568 209.756C116.314 207.35 117.861 205.37 119.29 203.712C121.461 204.227 123.561 205.01 125.54 206.043C130.985 208.836 139.685 216.17 143.792 221.426C145.41 223.438 146.77 225.644 147.841 227.993C146.182 229.688 144.347 231.704 142.241 234.148C137.716 239.401 124.334 257.879 111.064 277.198L111.017 277.176C103.515 273.926 92.9725 266.171 86.4371 260.191Z" fill="black"/>
<path d="M304.528 108.38C307.545 109.974 309.68 112.847 310.335 116.196C310.423 116.634 311.092 116.449 311.004 116.012C310.304 112.486 308.054 109.464 304.878 107.781C304.484 107.57 304.133 108.169 304.528 108.38Z" fill="black"/>
<path d="M128.446 127.704C131.116 127.358 133.646 126.306 135.775 124.657C136.132 124.396 135.786 123.793 135.425 124.058C133.401 125.643 130.992 126.662 128.446 127.009C128.005 127.054 128.001 127.749 128.446 127.704Z" fill="black"/>
<path d="M249.003 348.54C251.298 348.2 253.641 348.646 255.65 349.807C255.815 349.896 256.021 349.838 256.115 349.676C256.21 349.515 256.159 349.307 256.001 349.207C253.827 347.961 251.295 347.489 248.818 347.871C248.378 347.937 248.565 348.606 249.003 348.54Z" fill="black"/>
<path d="M248.251 352.762C250.367 352.657 252.526 352.859 254.016 354.542C254.313 354.878 254.802 354.385 254.507 354.052C252.906 352.244 250.542 351.955 248.251 352.068C247.807 352.09 247.804 352.785 248.251 352.762Z" fill="black"/>
<path d="M249.18 344.446C251.335 344.041 253.679 344.001 255.65 345.085C256.042 345.3 256.393 344.701 256.001 344.485C253.857 343.307 251.343 343.336 248.996 343.777C248.557 343.859 248.743 344.528 249.18 344.446Z" fill="black"/>
<path d="M41.9835 304.757C42.4094 306.368 42.4432 308.058 42.0821 309.685C41.9835 310.12 42.6525 310.306 42.7514 309.87C43.1409 308.121 43.1071 306.305 42.6528 304.573C42.5969 304.394 42.4095 304.292 42.2291 304.342C42.0486 304.391 41.9401 304.575 41.9835 304.757Z" fill="black"/>
<path d="M37.5157 304.895C38.0192 306.434 37.8609 308.112 37.0786 309.53C36.8448 309.912 37.4449 310.261 37.678 309.88C38.5522 308.3 38.7357 306.43 38.185 304.71C38.1291 304.532 37.9417 304.43 37.7613 304.479C37.5808 304.529 37.4723 304.713 37.5157 304.895V304.895Z" fill="black"/>
<path d="M46.243 304.158C46.7141 305.48 46.8341 306.902 46.5914 308.284C46.4987 308.72 47.1677 308.906 47.2608 308.469C47.5358 306.965 47.4158 305.416 46.9123 303.973C46.7805 303.548 46.1102 303.729 46.243 304.158Z" fill="black"/>
<path d="M173.61 90.9537C173.535 90.9539 173.462 90.9294 173.402 90.8839C170.27 88.5229 166.718 83.0965 165.094 79.2143C165.046 79.1 165.063 78.9687 165.138 78.8701C165.213 78.7714 165.335 78.7203 165.458 78.7361C165.581 78.7519 165.686 78.8321 165.734 78.9465C167.517 83.2056 171.144 88.312 173.819 90.3294C173.938 90.4192 173.987 90.5752 173.939 90.7167C173.892 90.8583 173.76 90.9537 173.61 90.9537Z" fill="white"/>
<path d="M182.775 43.6288C190.05 48.473 195.972 55.0884 199.985 62.8526C200.191 63.2494 200.79 62.8988 200.585 62.5023C196.51 54.6357 190.502 47.9347 183.125 43.0294C182.752 42.7811 182.405 43.3821 182.775 43.6288H182.775Z" fill="white"/>
<path d="M205.753 54.5317C210.224 59.4858 213.625 65.3083 215.745 71.6357C215.886 72.0571 216.557 71.8764 216.414 71.4512C214.256 65.0106 210.794 59.0839 206.244 54.0409C205.944 53.7084 205.454 54.2005 205.753 54.5317H205.753Z" fill="white"/>
<path d="M203.278 36.1706C209.706 38.2358 215.777 41.4496 220.414 46.4371C220.719 46.7649 221.209 46.2733 220.905 45.9462C216.19 40.8751 209.999 37.6012 203.463 35.5012C203.037 35.3642 202.854 36.0342 203.278 36.1706Z" fill="white"/>
<path d="M220.54 56.764C222.502 59.1529 223.968 61.909 224.852 64.8711C224.987 65.2952 225.657 65.114 225.521 64.6866C224.6 61.6109 223.074 58.7503 221.031 56.2731C220.739 55.934 220.25 56.4268 220.54 56.764H220.54Z" fill="white"/>
<path d="M192.17 85.9032C192.999 87.0574 193.962 88.1099 195.038 89.0389C195.374 89.3291 195.868 88.8402 195.528 88.5481C194.494 87.6614 193.568 86.6561 192.769 85.5528C192.51 85.194 191.908 85.5401 192.17 85.9032V85.9032Z" fill="white"/>
<path d="M188.188 17.7857C188.102 17.7858 188.02 17.7542 187.956 17.6969C187.863 17.6138 187.761 17.5254 187.652 17.4308C186.278 16.4285 185.307 14.9692 184.913 13.3151C184.617 11.5766 184.709 9.79425 185.182 8.09545C185.227 7.90951 185.414 7.79488 185.6 7.83915C185.786 7.88343 185.901 8.06991 185.857 8.2561C185.408 9.86013 185.318 11.5436 185.595 13.1863C185.968 14.6827 186.857 15.9997 188.105 16.9054C188.219 17.0031 188.324 17.0942 188.42 17.1803C188.527 17.2764 188.564 17.4285 188.512 17.5627C188.461 17.697 188.332 17.7857 188.188 17.7857H188.188Z" fill="black"/>
<path d="M101.738 104.919C101.725 104.919 101.712 104.918 101.699 104.917C100.054 104.867 98.4936 104.175 97.3522 102.989L94.9709 100.995C94.8752 100.916 94.8294 100.791 94.8508 100.668C94.8722 100.546 94.9575 100.444 95.0743 100.402C95.1912 100.359 95.3219 100.383 95.4169 100.463L97.7983 102.457C98.8339 103.555 100.266 104.192 101.775 104.226C101.959 104.246 102.094 104.406 102.084 104.59C102.074 104.774 101.922 104.918 101.738 104.919Z" fill="black"/>
<path d="M211.724 218.226C209.78 218.121 207.905 217.469 206.316 216.345C205.936 216.108 205.587 216.708 205.966 216.944C207.662 218.129 209.657 218.813 211.724 218.92C211.911 218.913 212.059 218.76 212.059 218.573C212.059 218.386 211.911 218.232 211.724 218.226Z" fill="black"/>
<path d="M210.437 221.166C207.275 221.154 205.097 223.384 203.17 225.625C202.881 225.962 203.37 226.455 203.661 226.116C205.459 224.025 207.457 221.849 210.437 221.86C210.624 221.853 210.772 221.7 210.772 221.513C210.772 221.326 210.624 221.172 210.437 221.166Z" fill="black"/>
<path d="M242.734 99.3058L243.564 101.477C243.592 101.551 243.66 101.603 243.739 101.61L245.925 101.817C246.009 101.825 246.08 101.882 246.105 101.963C246.129 102.044 246.103 102.131 246.038 102.185L244.379 103.547C244.314 103.6 244.288 103.687 244.312 103.768L244.903 105.736C244.927 105.817 244.901 105.904 244.836 105.957C244.771 106.01 244.681 106.02 244.607 105.981L242.642 104.948C242.578 104.914 242.502 104.916 242.44 104.952L240.481 106.099C240.407 106.142 240.315 106.136 240.248 106.084C240.181 106.032 240.152 105.945 240.175 105.863L240.768 103.772C240.791 103.689 240.762 103.601 240.694 103.549L238.903 102.19C238.835 102.138 238.805 102.049 238.829 101.966C238.853 101.884 238.925 101.824 239.011 101.816L241.339 101.609C241.418 101.602 241.487 101.551 241.515 101.476L242.345 99.3058C242.376 99.2252 242.453 99.1719 242.539 99.1719C242.626 99.1719 242.703 99.2252 242.734 99.3058Z" fill="black"/>
<path d="M154.682 122.513L155.512 124.684C155.54 124.758 155.608 124.809 155.687 124.817L157.873 125.023C157.957 125.031 158.028 125.089 158.052 125.17C158.077 125.25 158.051 125.338 157.985 125.392L156.327 126.754C156.262 126.807 156.236 126.894 156.26 126.974L156.851 128.943C156.875 129.024 156.849 129.11 156.784 129.164C156.719 129.217 156.629 129.226 156.555 129.187L154.59 128.154C154.526 128.121 154.45 128.123 154.388 128.159L152.429 129.306C152.355 129.349 152.263 129.343 152.196 129.291C152.129 129.239 152.1 129.151 152.123 129.07L152.716 126.978C152.739 126.896 152.71 126.808 152.641 126.756L150.851 125.397C150.783 125.344 150.753 125.256 150.777 125.173C150.801 125.09 150.873 125.031 150.959 125.023L153.287 124.816C153.366 124.809 153.434 124.758 153.463 124.683L154.293 122.513C154.324 122.432 154.401 122.379 154.487 122.379C154.574 122.379 154.651 122.432 154.682 122.513Z" fill="black"/>
<path d="M267.415 159.417L269.49 160.463C269.561 160.499 269.646 160.491 269.709 160.444L271.464 159.124C271.532 159.074 271.623 159.069 271.696 159.112C271.768 159.155 271.808 159.237 271.796 159.321L271.487 161.444C271.475 161.528 271.514 161.61 271.586 161.653L273.349 162.71C273.42 162.754 273.459 162.836 273.448 162.919C273.436 163.002 273.375 163.069 273.294 163.091L271.146 163.65C271.076 163.668 271.021 163.721 270.999 163.79L270.323 165.957C270.298 166.038 270.226 166.096 270.141 166.102C270.057 166.109 269.976 166.064 269.938 165.988L268.968 164.043C268.93 163.966 268.849 163.92 268.763 163.928L266.525 164.129C266.439 164.136 266.357 164.091 266.319 164.014C266.281 163.936 266.294 163.844 266.353 163.78L267.935 162.06C267.988 162.001 268.004 161.917 267.975 161.843L267.127 159.679C267.095 159.599 267.117 159.507 267.181 159.449C267.244 159.391 267.337 159.378 267.415 159.417Z" fill="black"/>
<path d="M245.048 134.702L247.124 135.748C247.194 135.784 247.279 135.776 247.343 135.728L249.098 134.409C249.165 134.358 249.256 134.353 249.329 134.397C249.402 134.44 249.441 134.522 249.429 134.606L249.12 136.729C249.108 136.812 249.147 136.895 249.219 136.938L250.982 137.995C251.054 138.038 251.093 138.12 251.081 138.203C251.069 138.286 251.008 138.354 250.927 138.375L248.779 138.935C248.709 138.953 248.654 139.006 248.633 139.074L247.957 141.241C247.931 141.323 247.859 141.38 247.775 141.387C247.69 141.394 247.61 141.348 247.572 141.272L246.602 139.327C246.563 139.25 246.482 139.205 246.397 139.213L244.158 139.413C244.072 139.421 243.991 139.375 243.953 139.298C243.914 139.221 243.928 139.128 243.986 139.065L245.568 137.344C245.622 137.286 245.637 137.201 245.608 137.127L244.76 134.964C244.729 134.883 244.75 134.792 244.814 134.734C244.878 134.676 244.971 134.663 245.048 134.702Z" fill="black"/>
<path d="M306.737 149.048L308.813 150.095C308.884 150.13 308.969 150.123 309.032 150.075L310.787 148.756C310.854 148.705 310.946 148.7 311.018 148.743C311.091 148.786 311.13 148.869 311.118 148.952L310.809 151.076C310.797 151.159 310.836 151.241 310.908 151.284L312.671 152.342C312.743 152.385 312.782 152.467 312.77 152.55C312.758 152.633 312.698 152.701 312.616 152.722L310.468 153.281C310.399 153.3 310.343 153.352 310.322 153.421L309.646 155.588C309.621 155.669 309.549 155.727 309.464 155.734C309.379 155.74 309.299 155.695 309.261 155.619L308.291 153.674C308.253 153.597 308.171 153.552 308.086 153.559L305.847 153.76C305.762 153.768 305.68 153.722 305.642 153.645C305.604 153.568 305.617 153.475 305.675 153.412L307.257 151.691C307.311 151.632 307.327 151.548 307.298 151.474L306.449 149.31C306.418 149.23 306.439 149.139 306.503 149.081C306.567 149.022 306.66 149.01 306.737 149.048Z" fill="black"/>
<path d="M292.501 127.858L290.349 128.413C290.28 128.431 290.225 128.484 290.203 128.552L289.53 130.717C289.509 130.794 289.442 130.849 289.364 130.856C289.153 129.074 288.606 127.347 287.753 125.768C287.455 125.241 287.142 124.741 286.816 124.276L288.697 125.227C288.767 125.262 288.851 125.254 288.912 125.206L290.668 123.887C290.736 123.836 290.827 123.831 290.9 123.873C290.973 123.916 291.013 123.998 291.002 124.081L290.689 126.206C290.679 126.289 290.72 126.371 290.793 126.414L292.556 127.476C292.626 127.521 292.663 127.602 292.651 127.684C292.639 127.766 292.58 127.834 292.501 127.858Z" fill="black"/>
<path d="M291.571 92.1162V92.1231C291.574 92.2201 291.506 92.305 291.411 92.3244L289.266 92.8867C289.197 92.905 289.142 92.9574 289.121 93.0255L288.44 95.1912C288.417 95.2724 288.346 95.3309 288.261 95.3385C288.177 95.3462 288.097 95.3015 288.059 95.2259L287.087 93.2823C287.047 93.2046 286.965 93.1581 286.879 93.1643L284.643 93.3656C284.558 93.3728 284.477 93.3274 284.439 93.2509C284.401 93.1744 284.413 93.0824 284.47 93.0185L286.052 91.2971C286.107 91.2393 286.123 91.1556 286.094 91.0819L285.629 89.8949C287.649 90.5267 289.632 91.2682 291.571 92.1162Z" fill="black"/>
<path d="M226.345 162.11L228.111 163.621C228.171 163.673 228.255 163.686 228.328 163.654L230.348 162.792C230.425 162.759 230.515 162.776 230.575 162.835C230.635 162.894 230.654 162.984 230.622 163.062L229.816 165.051C229.784 165.128 229.802 165.217 229.862 165.277L231.321 166.724C231.381 166.783 231.399 166.872 231.368 166.95C231.336 167.028 231.261 167.079 231.177 167.08L228.958 167.111C228.886 167.112 228.819 167.15 228.782 167.211L227.609 169.155C227.565 169.227 227.481 169.266 227.397 169.253C227.313 169.239 227.246 169.176 227.227 169.093L226.75 166.972C226.731 166.889 226.663 166.825 226.578 166.812L224.356 166.473C224.271 166.46 224.203 166.396 224.184 166.312C224.165 166.228 224.2 166.141 224.272 166.093L226.219 164.8C226.285 164.756 226.321 164.678 226.31 164.599L226.003 162.295C225.992 162.21 226.034 162.126 226.11 162.085C226.186 162.044 226.279 162.053 226.345 162.11Z" fill="black"/>
<path d="M184.819 156.234C182.681 156.297 180.529 156.271 178.363 156.158L180.286 154.874C180.354 154.834 180.39 154.757 180.376 154.679L180.071 152.375C180.057 152.289 180.099 152.204 180.175 152.162C180.251 152.12 180.345 152.13 180.411 152.187L182.181 153.701C182.241 153.751 182.325 153.762 182.396 153.728L184.416 152.868C184.493 152.836 184.582 152.854 184.641 152.913C184.7 152.972 184.718 153.061 184.687 153.138L183.881 155.13C183.851 155.208 183.87 155.295 183.93 155.353L184.819 156.234Z" fill="black"/>
<path d="M164.45 52.7853C164.399 52.7853 164.349 52.7799 164.3 52.7693C163.926 52.6872 163.689 52.3171 163.771 51.9426C164.387 49.5897 165.883 47.5636 167.951 46.2838C169.466 45.2619 171.236 44.6831 173.061 44.6128C173.441 44.6157 173.751 44.9156 173.768 45.2947C173.774 45.678 173.469 45.9942 173.086 46.0011C171.508 46.0712 169.982 46.5792 168.677 47.468C166.926 48.5447 165.655 50.2528 165.127 52.2396C165.057 52.558 164.775 52.785 164.45 52.7853Z" fill="black"/>
<path d="M154.845 59.9684C154.58 59.968 154.339 59.8172 154.222 59.5796C154.106 59.3421 154.135 59.0589 154.296 58.8496C155.247 57.5871 156.725 56.8315 158.305 56.8004C158.689 56.8004 158.999 57.1111 158.999 57.4945C158.999 57.8779 158.689 58.1886 158.305 58.1886C157.155 58.2189 156.082 58.7756 155.395 59.6989C155.263 59.8692 155.06 59.9687 154.845 59.9684Z" fill="black"/>
<path d="M15.4258 327.982C16.2772 327.716 17.2919 328.199 18.013 327.506C18.7008 326.845 18.6902 325.556 18.7276 324.674C18.7466 324.227 18.0524 324.228 18.0335 324.674C18.004 325.367 18.0591 326.843 17.2723 327.155C16.6513 327.401 15.8969 327.108 15.2413 327.313C14.8163 327.445 14.9977 328.116 15.4258 327.982Z" fill="black"/>
<path d="M54.0598 358.398C53.8987 358.398 53.7588 358.287 53.7222 358.13C53.3365 356.487 53.3379 355.498 53.727 355.016C54.4286 354.145 56.2432 354.083 57.2187 354.049C57.3137 354.042 57.4076 354.073 57.4793 354.136C57.551 354.199 57.5944 354.288 57.5996 354.383C57.6078 354.472 57.579 354.561 57.52 354.629C57.461 354.696 57.3769 354.737 57.2872 354.741C56.5028 354.768 54.7695 354.829 54.2672 355.452C54.1594 355.585 53.9574 356.096 54.3974 357.971C54.4185 358.061 54.4032 358.155 54.3547 358.233C54.3063 358.312 54.2287 358.367 54.1391 358.388C54.1132 358.395 54.0865 358.398 54.0598 358.398Z" fill="black"/>
<path d="M48.2409 354.432C48.0615 354.431 47.9119 354.294 47.8958 354.116L47.8775 353.916C47.7684 352.761 47.7074 351.678 48.1562 351.134C48.7622 350.399 50.183 350.364 51.6316 350.438C51.7235 350.442 51.8099 350.483 51.8716 350.551C51.9333 350.62 51.9652 350.71 51.9604 350.802C51.9628 350.896 51.9239 350.986 51.854 351.05C51.784 351.113 51.6899 351.142 51.5964 351.13C50.93 351.097 49.1587 351.008 48.6917 351.576C48.388 351.944 48.51 353.232 48.5683 353.851L48.5873 354.053C48.6044 354.244 48.4636 354.413 48.2727 354.43C48.2619 354.431 48.2517 354.432 48.2409 354.432Z" fill="black"/>
<path d="M42.9115 350.387C42.7324 350.386 42.583 350.25 42.5664 350.071L42.538 349.775C42.4309 348.678 42.3204 347.544 42.9447 346.834C43.6585 346.022 46.1158 346.018 46.1422 346.017C46.3339 346.018 46.4882 346.175 46.4869 346.367C46.4856 346.558 46.3292 346.713 46.1375 346.711C46.1172 346.712 46.0968 346.712 46.0765 346.711C45.3132 346.711 43.809 346.902 43.4667 347.292C43.0403 347.777 43.1318 348.715 43.2287 349.708L43.2579 350.008C43.2754 350.199 43.1349 350.368 42.944 350.385C42.9332 350.386 42.9224 350.387 42.9115 350.387Z" fill="black"/>
<path d="M5.68598 313.741C4.65801 313.619 3.65808 313.324 2.72841 312.869C2.55395 312.79 2.47656 312.585 2.55556 312.41C2.63455 312.236 2.84001 312.158 3.01447 312.237C4.11873 312.737 5.52804 313.175 5.88866 313.024C6.34352 312.826 6.79837 311.584 6.97665 310.766C7.01727 310.579 7.20195 310.46 7.38914 310.501C7.57633 310.542 7.69514 310.726 7.65452 310.913C7.57115 311.3 7.10546 313.252 6.16524 313.66C6.01251 313.719 5.84956 313.747 5.68598 313.741Z" fill="black"/>
<path d="M8.98726 318.561C8.05107 318.519 7.1213 318.385 6.21138 318.161C6.02527 318.116 5.91045 317.929 5.95476 317.743C5.99906 317.557 6.18576 317.441 6.37204 317.485C7.44102 317.74 9.13234 318.005 9.55261 317.799C9.98983 317.586 10.5138 316.138 10.7457 315.179C10.7925 314.994 10.9785 314.88 11.1646 314.923C11.3509 314.968 11.4655 315.156 11.4208 315.342C11.3144 315.781 10.7409 317.99 9.85765 318.423C9.58046 318.53 9.28388 318.577 8.98726 318.561Z" fill="black"/>
<path d="M11.8669 323.467C11.1049 323.467 10.3769 323.395 10.2393 323.381C10.1157 323.368 10.0082 323.291 9.95742 323.177C9.90665 323.064 9.92038 322.932 9.99341 322.832C10.0664 322.731 10.1876 322.677 10.3111 322.691C11.2764 322.832 12.2588 322.808 13.2158 322.618C13.628 322.417 13.9249 321.129 13.996 320.322C14.0059 320.198 14.0817 320.088 14.1946 320.035C14.3076 319.982 14.4402 319.994 14.5422 320.066C14.6441 320.138 14.6995 320.259 14.6875 320.383C14.6529 320.782 14.4326 322.796 13.5208 323.242C12.989 323.422 12.4275 323.498 11.8669 323.467Z" fill="black"/>
</svg>
